<?xml version="1.0" standalone="no"?>
<!DOCTYPE svg PUBLIC "-//W3C//DTD SVG 20010904//EN"
 "http://www.w3.org/TR/2001/REC-SVG-20010904/DTD/svg10.dtd">
<svg version="1.0" xmlns="http://www.w3.org/2000/svg"
 width="604.000000pt" height="829.000000pt" viewBox="0 0 604.000000 829.000000"
 preserveAspectRatio="xMidYMid meet">
<metadata>
Created by potrace 1.16, written by Peter Selinger 2001-2019
</metadata>
<g transform="translate(0.000000,829.000000) scale(0.100000,-0.100000)"
fill="#000000" stroke="none">
<path d="M375 8166 c-27 -7 -66 -20 -85 -30 -37 -19 -212 -148 -207 -152 2 -2
27 3 57 11 89 24 272 29 365 11 107 -21 213 -73 283 -139 55 -51 59 -53 122
-56 83 -3 138 -28 178 -79 18 -22 32 -43 32 -46 0 -3 -26 14 -57 38 -42 31
-79 49 -136 64 -42 11 -75 17 -73 14 2 -4 61 -110 131 -237 71 -126 136 -241
145 -254 17 -24 17 -28 -2 -80 -35 -102 -156 -524 -187 -653 -153 -643 -211
-1478 -140 -2013 29 -219 273 -1211 438 -1781 61 -210 138 -495 172 -635 57
-240 184 -699 251 -909 47 -149 111 -262 188 -332 36 -33 81 -66 100 -75 l35
-14 -27 -23 c-44 -35 -150 -71 -328 -111 -194 -44 -288 -83 -342 -143 -36 -40
-57 -86 -44 -99 3 -3 34 8 68 25 122 61 232 70 271 21 23 -28 17 -57 -25 -122
-59 -92 -98 -217 -67 -217 6 0 29 13 52 29 96 65 248 121 332 121 69 0 138
-30 188 -81 26 -27 51 -49 57 -49 10 0 21 37 43 160 17 90 18 92 112 164 46
36 69 87 61 138 l-6 38 55 0 c75 0 103 16 215 125 108 104 138 118 245 118 77
-1 54 7 455 -156 213 -86 297 -111 429 -127 100 -13 161 -9 253 17 l57 15
-118 147 c-335 416 -358 531 -224 1126 24 110 62 279 84 375 69 304 135 722
180 1130 29 271 37 838 15 1093 -33 378 -97 815 -161 1106 -154 705 -414 1183
-921 1697 -261 264 -528 467 -768 584 -208 102 -353 128 -811 150 -250 11
-369 25 -546 64 -117 26 -260 47 -314 45 -16 0 -52 -6 -80 -13z m1642 -606
c144 -30 244 -88 298 -173 44 -69 -34 -114 -261 -152 -174 -29 -223 -52 -262
-125 -21 -41 -23 -54 -19 -140 4 -80 18 -146 96 -430 50 -184 91 -349 91 -367
0 -70 -48 -168 -147 -300 -114 -151 -111 -249 18 -582 79 -201 99 -282 99
-395 0 -174 -28 -310 -140 -676 -38 -124 -73 -243 -79 -265 -25 -97 -53 -348
-55 -480 l-1 -140 36 -85 c42 -98 103 -258 183 -478 137 -378 266 -528 374
-437 91 76 91 270 1 625 -100 390 -126 583 -99 714 18 88 78 195 206 366 161
215 183 250 226 370 l38 105 -3 -205 -4 -205 -75 -360 c-109 -518 -111 -535
-129 -1029 -8 -222 -8 -329 -1 -376 6 -36 14 -87 17 -115 4 -27 21 -90 38
-140 30 -86 31 -98 31 -245 1 -175 -9 -222 -89 -419 -110 -274 -115 -313 -66
-460 46 -135 83 -262 78 -267 -9 -10 -111 36 -201 91 -67 40 -108 58 -150 65
-129 21 -237 127 -314 306 -31 73 -192 671 -272 1009 -38 160 -113 448 -169
641 -107 376 -311 1179 -385 1514 -65 299 -86 504 -86 839 0 421 62 1025 145
1421 27 127 164 682 170 689 2 2 26 -4 52 -13 75 -26 185 -31 289 -12 144 25
168 35 172 73 2 19 -7 51 -22 82 -14 28 -26 61 -26 75 0 28 44 69 105 98 48
22 143 18 292 -12z m129 -6795 c107 -55 144 -94 144 -155 0 -42 -20 -69 -91
-117 -50 -35 -71 -74 -84 -153 -12 -84 -11 -83 -55 -54 -47 31 -120 54 -174
54 -87 0 -234 -53 -331 -120 -36 -25 -45 -28 -45 -14 0 20 51 123 81 164 12
15 23 48 26 71 4 39 1 47 -27 74 -29 28 -37 30 -103 29 -58 -1 -85 -7 -141
-32 -38 -18 -71 -30 -73 -28 -8 7 69 87 98 102 43 22 181 64 265 80 105 20
112 17 24 -10 -96 -30 -150 -54 -150 -66 0 -15 21 -12 87 14 33 13 107 36 164
50 180 47 209 57 203 68 -4 5 -22 7 -43 3 -34 -6 -34 -5 14 18 28 13 56 31 64
40 21 26 72 20 147 -18z"/>
</g>
</svg>
